<?xml version="1.0" encoding="UTF-8" standalone="no"?>
<!-- Created with Inkscape (http://www.inkscape.org/) -->

<svg
   width="256"
   height="256"
   viewBox="0 0 67.733332 67.733333"
   version="1.1"
   id="svg10098"
   inkscape:version="1.2.1 (9c6d41e410, 2022-07-14)"
   sodipodi:docname="build_button.svg"
   inkscape:export-filename="build_button.png"
   inkscape:export-xdpi="96"
   inkscape:export-ydpi="96"
   xmlns:inkscape="http://www.inkscape.org/namespaces/inkscape"
   xmlns:sodipodi="http://sodipodi.sourceforge.net/DTD/sodipodi-0.dtd"
   xmlns="http://www.w3.org/2000/svg"
   xmlns:svg="http://www.w3.org/2000/svg">
  <sodipodi:namedview
     id="namedview10100"
     pagecolor="#ffffff"
     bordercolor="#999999"
     borderopacity="1"
     inkscape:showpageshadow="0"
     inkscape:pageopacity="0"
     inkscape:pagecheckerboard="0"
     inkscape:deskcolor="#d1d1d1"
     inkscape:document-units="px"
     showgrid="false"
     inkscape:zoom="2.0510461"
     inkscape:cx="18.283353"
     inkscape:cy="137.73459"
     inkscape:window-width="1920"
     inkscape:window-height="1001"
     inkscape:window-x="-9"
     inkscape:window-y="-9"
     inkscape:window-maximized="1"
     inkscape:current-layer="layer1" />
  <defs
     id="defs10095" />
  <g
     inkscape:label="Слой 1"
     inkscape:groupmode="layer"
     id="layer1">
    <rect
       style="fill:#a3a3a3;stroke:#262626;stroke-width:11.0676;stroke-linecap:round;stroke-linejoin:round;stroke-dasharray:none;stroke-opacity:1;paint-order:markers stroke fill"
       id="rect10221"
       width="56.665779"
       height="56.665779"
       x="5.5337653"
       y="5.5337653"
       ry="11.439612" />
    <g
       id="g1251"
       transform="translate(1.4505422,-1.5706346)">
      <path
         id="path286"
         style="fill:#262626;stroke:#262626;stroke-width:3.8071;stroke-linecap:round;stroke-linejoin:round;stroke-dasharray:none;stroke-opacity:1;paint-order:stroke fill markers"
         d="m 43.730701,15.242091 a 8.8805831,8.8805831 0 0 0 -8.880505,8.880505 8.8805831,8.8805831 0 0 0 8.880505,8.880933 8.8805831,8.8805831 0 0 0 8.880504,-8.880933 8.8805831,8.8805831 0 0 0 -0.15216,-1.634745 5.9382213,5.9382213 0 0 1 -5.785893,4.630774 5.9382213,5.9382213 0 0 1 -5.938481,-5.938053 5.9382213,5.9382213 0 0 1 4.630772,-5.786323 8.8805831,8.8805831 0 0 0 -1.634742,-0.152158 z" />
      <rect
         style="fill:#262626;fill-opacity:1;stroke:#262626;stroke-width:2.64583;stroke-linecap:round;stroke-linejoin:round;stroke-dasharray:none;stroke-opacity:1;paint-order:stroke fill markers"
         id="rect971"
         width="40.969837"
         height="6.1919622"
         x="-10.72307"
         y="-51.075657"
         ry="3.0959811"
         transform="rotate(135)" />
    </g>
  </g>
</svg>
